<?xml version="1.0" encoding="utf-8"?>
<!-- Generator: Adobe Illustrator 25.2.0, SVG Export Plug-In . SVG Version: 6.00 Build 0)  -->
<svg version="1.1" id="Layer_1" xmlns="http://www.w3.org/2000/svg" xmlns:xlink="http://www.w3.org/1999/xlink" x="0px" y="0px"
	 viewBox="0 0 2000 2000" style="enable-background:new 0 0 2000 2000;" xml:space="preserve">
<style type="text/css">
	.st0{display:none;fill:#FFFFFF;}
	.st1{fill:url(#SVGID_1_);}
	.st2{fill:url(#SVGID_2_);}
	.st3{fill:url(#SVGID_3_);}
	.st4{fill:url(#SVGID_4_);}
	.st5{fill:url(#SVGID_5_);}
	.st6{fill:url(#SVGID_6_);}
	.st7{fill:url(#SVGID_7_);}
	.st8{fill:url(#SVGID_8_);}
	.st9{fill:url(#SVGID_9_);}
	.st10{fill:url(#SVGID_10_);}
	.st11{fill:url(#SVGID_11_);}
	.st12{fill:url(#SVGID_12_);}
	.st13{fill:url(#SVGID_13_);}
	.st14{fill:url(#SVGID_14_);}
	.st15{fill:url(#SVGID_15_);}
	.st16{fill:url(#SVGID_16_);}
	.st17{fill:url(#SVGID_17_);}
	.st18{fill:url(#SVGID_18_);}
	.st19{fill:url(#SVGID_19_);}
	.st20{fill:url(#SVGID_20_);}
	.st21{fill:#383F50;}
	.st22{fill:url(#SVGID_21_);}
	.st23{fill:url(#SVGID_22_);}
	.st24{fill:url(#SVGID_23_);}
	.st25{fill:url(#SVGID_24_);}
	.st26{fill:url(#SVGID_25_);}
	.st27{fill:url(#SVGID_26_);}
	.st28{fill:url(#SVGID_27_);}
	.st29{fill:url(#SVGID_28_);}
	.st30{fill:url(#SVGID_29_);}
	.st31{fill:url(#SVGID_30_);}
	.st32{fill:url(#SVGID_31_);}
	.st33{fill:url(#SVGID_32_);}
	.st34{fill:url(#SVGID_33_);}
	.st35{fill:url(#SVGID_34_);}
	.st36{fill:url(#SVGID_35_);}
	.st37{fill:url(#SVGID_36_);}
	.st38{fill:url(#SVGID_37_);}
	.st39{fill:url(#SVGID_38_);}
	.st40{fill:url(#SVGID_39_);}
	.st41{fill:url(#SVGID_40_);}
</style>
<rect class="st0" width="2000" height="2000"/>
<g>
	<g>
		<g>
			<linearGradient id="SVGID_1_" gradientUnits="userSpaceOnUse" x1="443.968" y1="915.8448" x2="443.968" y2="1099.3524">
				<stop  offset="0" style="stop-color:#291E8E"/>
				<stop  offset="1" style="stop-color:#A649ED"/>
			</linearGradient>
			<path class="st1" d="M370.92,1030.11c0-40.78,30.67-70.68,74.16-70.68c38.2,0,66.08,23.11,71.93,56.27h-42.38
				c-4.74-11.14-15.61-18.21-29.55-18.21c-18.96,0-31.78,13.32-31.78,32.62c0,19.3,12.82,32.62,31.78,32.62
				c13.94,0,24.81-7.07,29.55-18.21h42.38c-5.85,33.16-33.74,56.27-71.93,56.27C401.59,1100.79,370.92,1070.89,370.92,1030.11z"/>
			<linearGradient id="SVGID_2_" gradientUnits="userSpaceOnUse" x1="748.3992" y1="915.8448" x2="748.3992" y2="1099.3524">
				<stop  offset="0" style="stop-color:#291E8E"/>
				<stop  offset="1" style="stop-color:#A649ED"/>
			</linearGradient>
			<path class="st2" d="M680.37,1029.41c0-46.28,27.32-69.98,68.03-69.98c40.71,0,68.03,23.42,68.03,69.98v71.37h-41.82v-71.37
				c0-21.75-10.59-30.95-26.21-30.95s-26.21,9.2-26.21,30.95v71.37h-41.82V1029.41z"/>
			<linearGradient id="SVGID_3_" gradientUnits="userSpaceOnUse" x1="885.8367" y1="915.8448" x2="885.8367" y2="1099.3524">
				<stop  offset="0" style="stop-color:#291E8E"/>
				<stop  offset="1" style="stop-color:#A649ED"/>
			</linearGradient>
			<path class="st3" d="M827.01,1056.48h41.26c0.28,7.07,5.57,10.6,17,10.6c12.83,0,17.01-4.35,17.01-10.06
				c0-8.97-10.04-9.79-22.86-11.69c-18.96-2.72-50.19-7.34-50.19-39.69c0-27.18,22.03-46.21,56.32-46.21
				c34.29,0,55.48,19.3,56.32,43.49h-40.71c-1.11-6.25-6.69-9.79-15.05-9.79c-10.32,0-14.5,5.16-14.5,10.6
				c0,8.15,10.04,9.24,22.86,11.15c19.8,2.72,50.19,7.88,50.19,39.69c0,27.73-23.42,46.21-58.83,46.21
				C850.43,1100.79,827.57,1082.3,827.01,1056.48z"/>
			<linearGradient id="SVGID_4_" gradientUnits="userSpaceOnUse" x1="1023.2797" y1="915.8448" x2="1023.2797" y2="1099.3524">
				<stop  offset="0" style="stop-color:#291E8E"/>
				<stop  offset="1" style="stop-color:#A649ED"/>
			</linearGradient>
			<path class="st4" d="M955.25,1032.56v-73.12h41.82v73.12c0,21.2,10.59,30.17,26.21,30.17s26.21-8.97,26.21-30.17v-73.12h41.82
				v73.12c0,45.12-27.32,68.23-68.03,68.23C982.57,1100.79,955.25,1077.95,955.25,1032.56z"/>
			<linearGradient id="SVGID_5_" gradientUnits="userSpaceOnUse" x1="1212.8538" y1="915.8448" x2="1212.8538" y2="1099.3524">
				<stop  offset="0" style="stop-color:#291E8E"/>
				<stop  offset="1" style="stop-color:#A649ED"/>
			</linearGradient>
			<path class="st5" d="M1107.47,1023.28c0-44.33,25.65-63.85,59.1-63.85c19.52,0,35.97,7.53,46.28,22.03
				c10.32-14.5,26.49-22.03,46.28-22.03c33.45,0,59.1,19.52,59.1,63.85v77.51h-41.82v-77.51c0-18.4-8.92-24.81-21.47-24.81
				c-12.27,0-21.19,6.41-21.19,24.81v77.51h-41.82v-77.51c0-18.4-8.92-24.81-21.19-24.81c-12.55,0-21.47,6.41-21.47,24.81v77.51
				h-41.82V1023.28z"/>
			<linearGradient id="SVGID_6_" gradientUnits="userSpaceOnUse" x1="1400.1858" y1="915.8448" x2="1400.1858" y2="1099.3524">
				<stop  offset="0" style="stop-color:#291E8E"/>
				<stop  offset="1" style="stop-color:#A649ED"/>
			</linearGradient>
			<path class="st6" d="M1326.44,1030.11c0-40.77,30.67-70.68,74.16-70.68s73.32,29.9,73.32,70.68v11.42h-103.99
				c3.34,15.77,15.61,22.83,30.67,22.83c11.99,0,20.91-2.45,26.21-9.79h43.21c-8.92,27.73-35.13,46.21-69.42,46.21
				C1357.11,1100.79,1326.44,1070.89,1326.44,1030.11z M1430.99,1015.7c-4.74-13.86-15.89-19.84-30.39-19.84
				c-14.5,0-25.65,6.25-29.83,19.84H1430.99z"/>
			<linearGradient id="SVGID_7_" gradientUnits="userSpaceOnUse" x1="1555.1959" y1="915.8448" x2="1555.1959" y2="1099.3524">
				<stop  offset="0" style="stop-color:#291E8E"/>
				<stop  offset="1" style="stop-color:#A649ED"/>
			</linearGradient>
			<path class="st7" d="M1481.31,1026.62c0-47.95,35.69-70.82,66.91-70.82c16.45,0,30.39,6.41,39.03,18.68v-75.28h41.82v127.69
				c0,46.28-31.22,73.88-73.32,73.88C1511.98,1100.79,1481.31,1070.95,1481.31,1026.62z M1587.26,1028.3
				c0-19.8-12.83-33.46-31.78-33.46s-31.78,13.66-31.78,33.46c0,19.79,12.82,33.46,31.78,33.46S1587.26,1048.09,1587.26,1028.3z"/>
		</g>
		<linearGradient id="SVGID_8_" gradientUnits="userSpaceOnUse" x1="595.6269" y1="915.8448" x2="595.6269" y2="1099.3524">
			<stop  offset="0" style="stop-color:#291E8E"/>
			<stop  offset="1" style="stop-color:#A649ED"/>
		</linearGradient>
		<path class="st8" d="M664.7,1021.69c-13.01,0-23.57-10.21-23.89-22.91c-2.87,1.2-6.03,1.86-9.35,1.86
			c-13.21,0-23.92-10.52-23.92-23.5c0-0.92,0.07-1.83,0.17-2.72c-1.13,0.16-2.27,0.27-3.45,0.27c-10.25,0-18.98-6.35-22.38-15.26
			c-36.06,5.65-60.41,33.54-60.41,70.14c0,41.08,30.67,71.21,74.16,71.21s74.16-30.13,74.16-71.21c0-2.83-0.16-5.61-0.45-8.33
			C667.84,1021.53,666.29,1021.69,664.7,1021.69z M595.63,1062.44c-18.96,0-31.78-13.42-31.78-32.87
			c0-19.45,12.82-32.87,31.78-32.87s31.78,13.42,31.78,32.87C627.41,1049.02,614.58,1062.44,595.63,1062.44z"/>
		<linearGradient id="SVGID_9_" gradientUnits="userSpaceOnUse" x1="603.3828" y1="915.8448" x2="603.3828" y2="1099.3524">
			<stop  offset="0" style="stop-color:#291E8E"/>
			<stop  offset="1" style="stop-color:#A649ED"/>
		</linearGradient>
		<path class="st9" d="M603.21,963.44c0.94,0.43,1.68,1.19,2.53,1.78c0.85,0.59,1.94,1.02,2.9,0.65c0.85-0.33,1.39-1.23,1.47-2.14
			c0.08-0.91-0.22-1.81-0.66-2.62c-1.83-3.39-6.85-6.73-10.73-4.68c-1.49,0.79-2.43,1.98-1.97,3.7
			C597.56,963.15,601.03,962.45,603.21,963.44z"/>
		<linearGradient id="SVGID_10_" gradientUnits="userSpaceOnUse" x1="628.208" y1="915.8448" x2="628.208" y2="1099.3524">
			<stop  offset="0" style="stop-color:#291E8E"/>
			<stop  offset="1" style="stop-color:#A649ED"/>
		</linearGradient>
		<path class="st10" d="M626.71,981.91c-2.14,1.08-7.9,2.46-4.38,5.48c0.81,0.7,1.9,0.98,2.97,1.08c2.52,0.23,5.13-0.49,7.17-2
			c1.42-1.05,2.62-2.58,2.72-4.35c0.11-1.76-1.22-3.65-2.99-3.68c-2.08-0.04-3.39,2.17-5.16,3.28
			C626.95,981.79,626.84,981.85,626.71,981.91z"/>
		<linearGradient id="SVGID_11_" gradientUnits="userSpaceOnUse" x1="653.2842" y1="915.8448" x2="653.2842" y2="1099.3524">
			<stop  offset="0" style="stop-color:#291E8E"/>
			<stop  offset="1" style="stop-color:#A649ED"/>
		</linearGradient>
		<path class="st11" d="M651.77,966.83c-2.57,1.28-5.86,2.97-3.54,4.97c0.67,0.58,1.58,0.82,2.46,0.91
			c2.13,0.21,4.33-0.38,6.07-1.64c1.28-0.92,2.35-2.31,2.36-3.89c0.02-1.57-1.4-3.17-2.95-2.91c-0.85,0.14-1.53,0.76-2.19,1.31
			C653.55,965.94,652.71,966.36,651.77,966.83z"/>
		<linearGradient id="SVGID_12_" gradientUnits="userSpaceOnUse" x1="660.6436" y1="915.8448" x2="660.6436" y2="1099.3524">
			<stop  offset="0" style="stop-color:#291E8E"/>
			<stop  offset="1" style="stop-color:#A649ED"/>
		</linearGradient>
		<path class="st12" d="M658.44,1007.14c0,0.08,0,0.15-0.01,0.23c-0.04,0.71-0.31,1.38-0.44,2.08c-0.12,0.7-0.07,1.5,0.43,2
			c0.48,0.48,1.25,0.55,1.89,0.32c0.63-0.23,1.14-0.72,1.54-1.26c1.26-1.65,1.76-3.86,1.33-5.89c-0.23-1.09-0.76-2.18-1.71-2.76
			c-2.17-1.32-3.79,0.93-3.44,2.95C658.18,1005.58,658.44,1006.35,658.44,1007.14z"/>
	</g>
</g>
</svg>
